<svg id="Capa_1" enable-background="new 0 0 512 512" height="512" viewBox="0 0 512 512" width="512" xmlns="http://www.w3.org/2000/svg"><g><g><path d="m482 186h-36v-130c0-16.542-13.458-30-30-30h-386c-16.542 0-30 13.458-30 30v240c0 16.542 13.458 30 30 30h30v130c0 16.542 13.458 30 30 30h392c16.542 0 30-13.458 30-30v-240c0-16.542-13.458-30-30-30zm-452-140h386c5.514 0 10 4.486 10 10v30h-406v-30c0-5.514 4.486-10 10-10zm30 170v90h-30c-5.514 0-10-4.486-10-10v-150h406v40h-336c-16.542 0-30 13.458-30 30zm432 240c0 5.514-4.486 10-10 10h-392c-5.514 0-10-4.486-10-10v-240c0-5.514 4.486-10 10-10h392c5.514 0 10 4.486 10 10z"/><path d="m216 246h-80c-5.522 0-10 4.477-10 10v40c0 5.523 4.478 10 10 10h80c5.522 0 10-4.477 10-10v-40c0-5.523-4.478-10-10-10zm-10 40h-60v-20h60z"/><path d="m356 306c5.522 0 10-4.477 10-10v-40c0-5.523-4.478-10-10-10s-10 4.477-10 10v40c0 5.523 4.478 10 10 10z"/><path d="m396 306c5.522 0 10-4.477 10-10v-40c0-5.523-4.478-10-10-10s-10 4.477-10 10v40c0 5.523 4.478 10 10 10z"/><path d="m436 246c-5.522 0-10 4.477-10 10v40c0 5.523 4.478 10 10 10s10-4.477 10-10v-40c0-5.523-4.478-10-10-10z"/><path d="m316 306c5.522 0 10-4.477 10-10v-40c0-5.523-4.478-10-10-10s-10 4.477-10 10v40c0 5.523 4.478 10 10 10z"/><path d="m156 386h-20c-5.522 0-10 4.477-10 10s4.478 10 10 10h20c5.522 0 10-4.477 10-10s-4.478-10-10-10z"/><path d="m216 386h-20c-5.522 0-10 4.477-10 10s4.478 10 10 10h20c5.522 0 10-4.477 10-10s-4.478-10-10-10z"/><path d="m276 386h-20c-5.522 0-10 4.477-10 10s4.478 10 10 10h20c5.522 0 10-4.477 10-10s-4.478-10-10-10z"/></g><path d="m376 438c-23.159 0-42-18.841-42-42s18.841-42 42-42 42 18.841 42 42-18.841 42-42 42zm0-64c-12.131 0-22 9.869-22 22s9.869 22 22 22 22-9.869 22-22-9.869-22-22-22z"/></g></svg>